<svg xmlns="http://www.w3.org/2000/svg" xmlns:xlink="http://www.w3.org/1999/xlink" viewBox="465 110 510 550" preserveAspectRatio="xMidYMid meet" version="1.0"><defs><g/><clipPath id="c5d30596bf"><path d="M 490.667969 175.667969 L 949.328125 175.667969 L 949.328125 634.332031 L 490.667969 634.332031 Z M 490.667969 175.667969 " clip-rule="nonzero"/></clipPath><clipPath id="db485002c5"><path d="M 949.328125 240.167969 L 949.328125 569.832031 C 949.328125 586.9375 942.535156 603.34375 930.4375 615.441406 C 918.339844 627.535156 901.9375 634.332031 884.828125 634.332031 L 555.164062 634.332031 C 538.058594 634.332031 521.652344 627.535156 509.558594 615.441406 C 497.460938 603.34375 490.667969 586.9375 490.667969 569.832031 L 490.667969 240.167969 C 490.667969 223.0625 497.460938 206.65625 509.558594 194.558594 C 521.652344 182.464844 538.058594 175.667969 555.164062 175.667969 L 884.828125 175.667969 C 901.9375 175.667969 918.339844 182.464844 930.4375 194.558594 C 942.535156 206.65625 949.328125 223.0625 949.328125 240.167969 Z M 949.328125 240.167969 " clip-rule="nonzero"/></clipPath><clipPath id="cff639df53"><path d="M 0.667969 0.667969 L 459.328125 0.667969 L 459.328125 459.332031 L 0.667969 459.332031 Z M 0.667969 0.667969 " clip-rule="nonzero"/></clipPath><clipPath id="7a71435797"><path d="M 459.328125 65.167969 L 459.328125 394.832031 C 459.328125 411.9375 452.535156 428.34375 440.4375 440.441406 C 428.339844 452.535156 411.9375 459.332031 394.828125 459.332031 L 65.164062 459.332031 C 48.058594 459.332031 31.652344 452.535156 19.558594 440.441406 C 7.460938 428.34375 0.667969 411.9375 0.667969 394.832031 L 0.667969 65.167969 C 0.667969 48.0625 7.460938 31.65625 19.558594 19.558594 C 31.652344 7.464844 48.058594 0.667969 65.164062 0.667969 L 394.828125 0.667969 C 411.9375 0.667969 428.339844 7.464844 440.4375 19.558594 C 452.535156 31.65625 459.328125 48.0625 459.328125 65.167969 Z M 459.328125 65.167969 " clip-rule="nonzero"/></clipPath><clipPath id="5f512cfa6e"><rect x="0" width="460" y="0" height="460"/></clipPath><clipPath id="9b665c5ce5"><path d="M 847 301 L 925 301 L 925 613 L 847 613 Z M 847 301 " clip-rule="nonzero"/></clipPath><clipPath id="abcf195aa8"><path d="M 510.132812 340.152344 L 510.132812 574.152344 C 510.132812 599.003906 530.28125 619.152344 555.132812 619.152344 L 886.367188 619.152344 C 911.21875 619.152344 931.367188 599.003906 931.367188 574.152344 L 931.367188 340.152344 C 931.367188 315.296875 911.21875 295.152344 886.367188 295.152344 L 555.132812 295.152344 C 530.28125 295.152344 510.132812 315.296875 510.132812 340.152344 Z M 510.132812 340.152344 " clip-rule="nonzero"/></clipPath><clipPath id="a5398d7472"><path d="M 841 295.152344 L 931.632812 295.152344 L 931.632812 619 L 841 619 Z M 841 295.152344 " clip-rule="nonzero"/></clipPath><clipPath id="d404a1cfd2"><path d="M 510.132812 340.152344 L 510.132812 574.152344 C 510.132812 599.003906 530.28125 619.152344 555.132812 619.152344 L 886.367188 619.152344 C 911.21875 619.152344 931.367188 599.003906 931.367188 574.152344 L 931.367188 340.152344 C 931.367188 315.296875 911.21875 295.152344 886.367188 295.152344 L 555.132812 295.152344 C 530.28125 295.152344 510.132812 315.296875 510.132812 340.152344 Z M 510.132812 340.152344 " clip-rule="nonzero"/></clipPath><clipPath id="9ad62350eb"><path d="M 737 376 L 815 376 L 815 613 L 737 613 Z M 737 376 " clip-rule="nonzero"/></clipPath><clipPath id="ed18ca316b"><path d="M 510.132812 340.152344 L 510.132812 574.152344 C 510.132812 599.003906 530.28125 619.152344 555.132812 619.152344 L 886.367188 619.152344 C 911.21875 619.152344 931.367188 599.003906 931.367188 574.152344 L 931.367188 340.152344 C 931.367188 315.296875 911.21875 295.152344 886.367188 295.152344 L 555.132812 295.152344 C 530.28125 295.152344 510.132812 315.296875 510.132812 340.152344 Z M 510.132812 340.152344 " clip-rule="nonzero"/></clipPath><clipPath id="11d6a5a1bb"><path d="M 730 369 L 822 369 L 822 619.152344 L 730 619.152344 Z M 730 369 " clip-rule="nonzero"/></clipPath><clipPath id="2123b873db"><path d="M 510.132812 340.152344 L 510.132812 574.152344 C 510.132812 599.003906 530.28125 619.152344 555.132812 619.152344 L 886.367188 619.152344 C 911.21875 619.152344 931.367188 599.003906 931.367188 574.152344 L 931.367188 340.152344 C 931.367188 315.296875 911.21875 295.152344 886.367188 295.152344 L 555.132812 295.152344 C 530.28125 295.152344 510.132812 315.296875 510.132812 340.152344 Z M 510.132812 340.152344 " clip-rule="nonzero"/></clipPath><clipPath id="e4ad49696a"><path d="M 627 455 L 705 455 L 705 613 L 627 613 Z M 627 455 " clip-rule="nonzero"/></clipPath><clipPath id="caa1467ff0"><path d="M 510.132812 340.152344 L 510.132812 574.152344 C 510.132812 599.003906 530.28125 619.152344 555.132812 619.152344 L 886.367188 619.152344 C 911.21875 619.152344 931.367188 599.003906 931.367188 574.152344 L 931.367188 340.152344 C 931.367188 315.296875 911.21875 295.152344 886.367188 295.152344 L 555.132812 295.152344 C 530.28125 295.152344 510.132812 315.296875 510.132812 340.152344 Z M 510.132812 340.152344 " clip-rule="nonzero"/></clipPath><clipPath id="c80d5fda74"><path d="M 620 448 L 711 448 L 711 619.152344 L 620 619.152344 Z M 620 448 " clip-rule="nonzero"/></clipPath><clipPath id="2d16158509"><path d="M 510.132812 340.152344 L 510.132812 574.152344 C 510.132812 599.003906 530.28125 619.152344 555.132812 619.152344 L 886.367188 619.152344 C 911.21875 619.152344 931.367188 599.003906 931.367188 574.152344 L 931.367188 340.152344 C 931.367188 315.296875 911.21875 295.152344 886.367188 295.152344 L 555.132812 295.152344 C 530.28125 295.152344 510.132812 315.296875 510.132812 340.152344 Z M 510.132812 340.152344 " clip-rule="nonzero"/></clipPath><clipPath id="b6fbc2301a"><path d="M 517 529 L 595 529 L 595 613 L 517 613 Z M 517 529 " clip-rule="nonzero"/></clipPath><clipPath id="243a07500d"><path d="M 510.132812 340.152344 L 510.132812 574.152344 C 510.132812 599.003906 530.28125 619.152344 555.132812 619.152344 L 886.367188 619.152344 C 911.21875 619.152344 931.367188 599.003906 931.367188 574.152344 L 931.367188 340.152344 C 931.367188 315.296875 911.21875 295.152344 886.367188 295.152344 L 555.132812 295.152344 C 530.28125 295.152344 510.132812 315.296875 510.132812 340.152344 Z M 510.132812 340.152344 " clip-rule="nonzero"/></clipPath><clipPath id="e0c925c8c7"><path d="M 510.132812 523 L 601 523 L 601 619 L 510.132812 619 Z M 510.132812 523 " clip-rule="nonzero"/></clipPath><clipPath id="d9547b037d"><path d="M 510.132812 340.152344 L 510.132812 574.152344 C 510.132812 599.003906 530.28125 619.152344 555.132812 619.152344 L 886.367188 619.152344 C 911.21875 619.152344 931.367188 599.003906 931.367188 574.152344 L 931.367188 340.152344 C 931.367188 315.296875 911.21875 295.152344 886.367188 295.152344 L 555.132812 295.152344 C 530.28125 295.152344 510.132812 315.296875 510.132812 340.152344 Z M 510.132812 340.152344 " clip-rule="nonzero"/></clipPath><clipPath id="578530fc9b"><rect x="0" width="99" y="0" height="210"/></clipPath></defs><g clip-path="url(#c5d30596bf)"><g clip-path="url(#db485002c5)"><g transform="matrix(1, 0, 0, 1, 490, 175)"><g clip-path="url(#5f512cfa6e)"><g clip-path="url(#cff639df53)"><g clip-path="url(#7a71435797)"><path fill="#ffffff" d="M 0.667969 0.667969 L 459.328125 0.667969 L 459.328125 459.332031 L 0.667969 459.332031 Z M 0.667969 0.667969 " fill-opacity="1" fill-rule="nonzero"/></g></g></g></g></g></g><g clip-path="url(#9b665c5ce5)"><g clip-path="url(#abcf195aa8)"><path fill="#000000" d="M 857.421875 612.101562 C 852.148438 612.101562 847.859375 607.816406 847.859375 602.546875 L 847.859375 311.097656 C 847.859375 305.828125 852.148438 301.539062 857.421875 301.539062 L 915.164062 301.539062 C 920.4375 301.539062 924.726562 305.828125 924.726562 311.097656 L 924.726562 602.546875 C 924.726562 607.816406 920.4375 612.101562 915.164062 612.101562 Z M 857.421875 612.101562 " fill-opacity="1" fill-rule="nonzero"/></g></g><g clip-path="url(#a5398d7472)"><g clip-path="url(#d404a1cfd2)"><path fill="#000000" d="M 915.164062 308.007812 C 916.867188 308.007812 918.253906 309.390625 918.253906 311.097656 L 918.253906 602.546875 C 918.253906 604.246094 916.871094 605.636719 915.164062 605.636719 L 857.421875 605.636719 C 855.71875 605.636719 854.332031 604.25 854.332031 602.546875 L 854.332031 311.097656 C 854.332031 309.394531 855.714844 308.007812 857.421875 308.007812 L 915.164062 308.007812 M 915.164062 295.074219 L 857.421875 295.074219 C 848.570312 295.074219 841.390625 302.246094 841.390625 311.097656 L 841.390625 602.546875 C 841.390625 611.394531 848.566406 618.570312 857.421875 618.570312 L 915.164062 618.570312 C 924.015625 618.570312 931.195312 611.398438 931.195312 602.546875 L 931.195312 311.097656 C 931.195312 302.246094 924.019531 295.074219 915.164062 295.074219 Z M 915.164062 295.074219 " fill-opacity="1" fill-rule="nonzero"/></g></g><g clip-path="url(#9ad62350eb)"><g clip-path="url(#ed18ca316b)"><path fill="#000000" d="M 747.027344 612.761719 C 741.753906 612.761719 737.464844 608.476562 737.464844 603.207031 L 737.464844 385.695312 C 737.464844 380.429688 741.753906 376.140625 747.027344 376.140625 L 805.132812 376.140625 C 810.410156 376.140625 814.695312 380.429688 814.695312 385.695312 L 814.695312 603.207031 C 814.695312 608.476562 810.410156 612.761719 805.132812 612.761719 Z M 747.027344 612.761719 " fill-opacity="1" fill-rule="nonzero"/></g></g><g clip-path="url(#11d6a5a1bb)"><g clip-path="url(#2123b873db)"><path fill="#000000" d="M 805.132812 382.609375 C 806.835938 382.609375 808.222656 383.992188 808.222656 385.695312 L 808.222656 603.207031 C 808.222656 604.90625 806.839844 606.292969 805.132812 606.292969 L 747.023438 606.292969 C 745.320312 606.292969 743.933594 604.910156 743.933594 603.207031 L 743.933594 385.695312 C 743.933594 383.996094 745.316406 382.609375 747.023438 382.609375 L 805.132812 382.609375 M 805.132812 369.675781 L 747.023438 369.675781 C 738.171875 369.675781 730.992188 376.847656 730.992188 385.695312 L 730.992188 603.207031 C 730.992188 612.054688 738.167969 619.230469 747.023438 619.230469 L 805.132812 619.230469 C 813.988281 619.230469 821.167969 612.058594 821.167969 603.207031 L 821.167969 385.695312 C 821.167969 376.851562 813.988281 369.675781 805.132812 369.675781 Z M 805.132812 369.675781 " fill-opacity="1" fill-rule="nonzero"/></g></g><g clip-path="url(#e4ad49696a)"><g clip-path="url(#caa1467ff0)"><path fill="#000000" d="M 636.8125 612.761719 C 631.539062 612.761719 627.25 608.476562 627.25 603.207031 L 627.25 464.917969 C 627.25 459.652344 631.539062 455.363281 636.8125 455.363281 L 694.921875 455.363281 C 700.195312 455.363281 704.484375 459.648438 704.484375 464.917969 L 704.484375 603.207031 C 704.484375 608.476562 700.195312 612.761719 694.921875 612.761719 Z M 636.8125 612.761719 " fill-opacity="1" fill-rule="nonzero"/></g></g><g clip-path="url(#c80d5fda74)"><g clip-path="url(#2d16158509)"><path fill="#000000" d="M 694.921875 461.832031 C 696.625 461.832031 698.011719 463.21875 698.011719 464.921875 L 698.011719 603.207031 C 698.011719 604.90625 696.628906 606.292969 694.921875 606.292969 L 636.8125 606.292969 C 635.109375 606.292969 633.722656 604.910156 633.722656 603.207031 L 633.722656 464.921875 C 633.722656 463.21875 635.105469 461.832031 636.8125 461.832031 L 694.921875 461.832031 M 694.921875 448.898438 L 636.8125 448.898438 C 627.960938 448.898438 620.78125 456.070312 620.78125 464.921875 L 620.78125 603.207031 C 620.78125 612.054688 627.957031 619.230469 636.8125 619.230469 L 694.921875 619.230469 C 703.777344 619.230469 710.957031 612.058594 710.957031 603.207031 L 710.957031 464.921875 C 710.957031 456.070312 703.777344 448.898438 694.921875 448.898438 Z M 694.921875 448.898438 " fill-opacity="1" fill-rule="nonzero"/></g></g><g clip-path="url(#b6fbc2301a)"><g clip-path="url(#243a07500d)"><path fill="#000000" d="M 526.601562 612.101562 C 521.328125 612.101562 517.039062 607.816406 517.039062 602.546875 L 517.039062 539.191406 C 517.039062 533.921875 521.328125 529.636719 526.601562 529.636719 L 584.710938 529.636719 C 589.984375 529.636719 594.273438 533.921875 594.273438 539.191406 L 594.273438 602.546875 C 594.273438 607.816406 589.984375 612.101562 584.710938 612.101562 Z M 526.601562 612.101562 " fill-opacity="1" fill-rule="nonzero"/></g></g><g clip-path="url(#e0c925c8c7)"><g clip-path="url(#d9547b037d)"><path fill="#000000" d="M 584.707031 536.105469 C 586.410156 536.105469 587.800781 537.488281 587.800781 539.191406 L 587.800781 602.546875 C 587.800781 604.246094 586.414062 605.636719 584.707031 605.636719 L 526.597656 605.636719 C 524.894531 605.636719 523.507812 604.25 523.507812 602.546875 L 523.507812 539.191406 C 523.507812 537.492188 524.890625 536.105469 526.597656 536.105469 L 584.707031 536.105469 M 584.707031 523.171875 L 526.597656 523.171875 C 517.746094 523.171875 510.566406 530.34375 510.566406 539.191406 L 510.566406 602.546875 C 510.566406 611.394531 517.742188 618.570312 526.597656 618.570312 L 584.707031 618.570312 C 593.5625 618.570312 600.742188 611.398438 600.742188 602.546875 L 600.742188 539.191406 C 600.742188 530.34375 593.566406 523.171875 584.707031 523.171875 Z M 584.707031 523.171875 " fill-opacity="1" fill-rule="nonzero"/></g></g><g fill="#000000" fill-opacity="1"><g transform="translate(576.191761, 325.142552)"><g><path d="M 22.203125 -95.203125 L 84.984375 -95.203125 L 82.53125 -83.5 L 33.640625 -83.5 L 27.109375 -53.125 L 63.609375 -53.125 L 61.296875 -42.09375 L 24.78125 -42.09375 L 15.9375 0 L 2.046875 0 Z M 22.203125 -95.203125 "/></g></g></g><g transform="matrix(1, 0, 0, 1, 505, 139)"><g clip-path="url(#578530fc9b)"><g fill="#000000" fill-opacity="1"><g transform="translate(0.384903, 150.958078)"><g><path d="M 57.15625 2.0625 C 47.238281 2.0625 38.421875 0 30.703125 -4.125 C 22.992188 -8.257812 16.984375 -14.113281 12.671875 -21.6875 C 8.359375 -29.257812 6.203125 -38.050781 6.203125 -48.0625 C 6.203125 -58.070312 8.359375 -66.882812 12.671875 -74.5 C 16.984375 -82.125 22.992188 -88 30.703125 -92.125 C 38.421875 -96.257812 47.238281 -98.328125 57.15625 -98.328125 C 70.375 -98.328125 81.4375 -94.976562 90.34375 -88.28125 L 90.34375 -74.78125 C 82.351562 -81.851562 71.703125 -85.390625 58.390625 -85.390625 C 50.953125 -85.390625 44.363281 -83.875 38.625 -80.84375 C 32.882812 -77.8125 28.40625 -73.472656 25.1875 -67.828125 C 21.976562 -62.179688 20.375 -55.59375 20.375 -48.0625 C 20.375 -40.53125 22.003906 -33.914062 25.265625 -28.21875 C 28.523438 -22.53125 33.023438 -18.171875 38.765625 -15.140625 C 44.503906 -12.117188 51.046875 -10.609375 58.390625 -10.609375 C 65.179688 -10.609375 71.265625 -11.5 76.640625 -13.28125 C 82.015625 -15.070312 86.992188 -17.941406 91.578125 -21.890625 L 91.578125 -8.265625 C 83.316406 -1.378906 71.84375 2.0625 57.15625 2.0625 Z M 57.15625 2.0625 "/></g></g></g></g></g></svg>